<mxfile host="app.diagrams.net" agent="Mozilla/5.0 (X11; Linux x86_64; rv:135.0) Gecko/20100101 Firefox/135.0" version="27.2.0">
  <diagram name="Page-1" id="UdgtCOg9UXMHosfVLhvG">
    <mxGraphModel dx="991" dy="819" grid="1" gridSize="10" guides="1" tooltips="1" connect="1" arrows="1" fold="1" page="1" pageScale="1" pageWidth="827" pageHeight="1169" math="0" shadow="0">
      <root>
        <mxCell id="0" />
        <mxCell id="1" parent="0" />
        <mxCell id="MHuZDl--qb3jeEwY4W-m-1" value="&lt;div align=&quot;left&quot;&gt;&amp;nbsp;&lt;b&gt;&lt;font style=&quot;font-size: 15px;&quot;&gt;users&lt;/font&gt;&lt;/b&gt;&lt;hr&gt;&lt;/div&gt;&lt;div align=&quot;left&quot;&gt;&amp;nbsp;&lt;span style=&quot;color: light-dark(rgb(0, 0, 0), rgb(255, 255, 0));&quot;&gt;user_id&lt;span style=&quot;white-space: pre;&quot;&gt;&#x9;&lt;/span&gt;&lt;/span&gt;&lt;span style=&quot;white-space: pre;&quot;&gt;&#x9;&lt;span style=&quot;white-space: pre;&quot;&gt;&#x9;&lt;/span&gt;&lt;/span&gt;&lt;font style=&quot;color: light-dark(rgb(0, 0, 0), rgb(255, 255, 0));&quot;&gt;INT AUTO_INCREMENT PK&lt;/font&gt;&lt;br&gt;&amp;nbsp;username&lt;span style=&quot;white-space: pre;&quot;&gt;&#x9;&lt;/span&gt;&lt;span style=&quot;white-space: pre;&quot;&gt;&#x9;&lt;/span&gt;&lt;font&gt;VARCHAR, UNIQUE&lt;/font&gt;&lt;/div&gt;&lt;div align=&quot;left&quot;&gt;&amp;nbsp;nickname&lt;span style=&quot;white-space: pre;&quot;&gt;&#x9;&lt;span style=&quot;white-space: pre;&quot;&gt;&#x9;&lt;/span&gt;&lt;/span&gt;&lt;font&gt;VARCHAR, UNIQUE&lt;/font&gt;&lt;br&gt;&amp;nbsp;email&lt;span style=&quot;white-space: pre;&quot;&gt;&#x9;&lt;/span&gt;&lt;span style=&quot;white-space: pre;&quot;&gt;&#x9;&lt;/span&gt;&lt;span style=&quot;white-space: pre;&quot;&gt;&#x9;&lt;/span&gt;&lt;font&gt;VARCHAR, UNIQUE&lt;/font&gt;&lt;br&gt;&amp;nbsp;password_hash &lt;span style=&quot;white-space: pre;&quot;&gt;&#x9;&lt;/span&gt;VARCHAR&lt;br&gt;&amp;nbsp;twofa_secret&amp;nbsp;&amp;nbsp; &lt;span style=&quot;white-space: pre;&quot;&gt;&#x9;&lt;/span&gt;VARCHAR, encrypted&lt;br&gt;&amp;nbsp;avatar&amp;nbsp;&amp;nbsp;&amp;nbsp;&amp;nbsp;&amp;nbsp;&amp;nbsp;&amp;nbsp;&amp;nbsp; &lt;span style=&quot;white-space: pre;&quot;&gt;&#x9;&lt;/span&gt;&lt;span style=&quot;white-space: pre;&quot;&gt;&#x9;&lt;/span&gt;TEXT or URL&lt;br&gt;&amp;nbsp;preferred_lang &lt;span style=&quot;white-space: pre;&quot;&gt;&#x9;&lt;/span&gt;VARCHAR, default &#39;en&#39;&lt;br&gt;&amp;nbsp;created_at&amp;nbsp;&amp;nbsp;&amp;nbsp;&amp;nbsp;&lt;span style=&quot;white-space: pre;&quot;&gt;&#x9;&lt;/span&gt; &lt;span style=&quot;white-space: pre;&quot;&gt;&#x9;&lt;/span&gt;DATETIME&lt;br&gt;&amp;nbsp;updated_at&amp;nbsp;&amp;nbsp;&amp;nbsp;&amp;nbsp; &lt;span style=&quot;white-space: pre;&quot;&gt;&#x9;&lt;/span&gt;DATETIME&lt;/div&gt;&lt;div align=&quot;left&quot;&gt;&lt;br&gt;&lt;/div&gt;" style="rounded=0;whiteSpace=wrap;html=1;align=left;glass=0;fontSize=12;spacingTop=2;spacing=10;" vertex="1" parent="1">
          <mxGeometry x="90" y="240" width="280" height="220" as="geometry" />
        </mxCell>
        <mxCell id="MHuZDl--qb3jeEwY4W-m-3" value="&lt;div align=&quot;left&quot;&gt;&amp;nbsp;&lt;b&gt;&lt;font style=&quot;font-size: 15px;&quot;&gt;friendships&lt;/font&gt;&lt;/b&gt;&lt;hr&gt;&lt;/div&gt;&lt;div align=&quot;left&quot;&gt;&amp;nbsp;user_id&lt;span style=&quot;white-space: pre;&quot;&gt;&#x9;&lt;/span&gt;&lt;i&gt;&lt;span style=&quot;white-space: pre;&quot;&gt;&#x9;&lt;/span&gt;&lt;span style=&quot;white-space: pre;&quot;&gt;&#x9;&lt;/span&gt;&lt;/i&gt;INT&lt;br&gt;&amp;nbsp;friend_id&lt;span style=&quot;white-space: pre;&quot;&gt;&#x9;&lt;/span&gt;&lt;span style=&quot;white-space: pre;&quot;&gt;&#x9;&lt;/span&gt;&lt;i&gt;&lt;font&gt;&lt;span style=&quot;white-space: pre;&quot;&gt;&#x9;&lt;/span&gt;&lt;/font&gt;&lt;/i&gt;&lt;font&gt;INT&lt;/font&gt;&lt;/div&gt;&lt;div align=&quot;left&quot;&gt;&amp;nbsp;status&lt;span style=&quot;white-space: pre;&quot;&gt;&lt;span style=&quot;white-space: pre;&quot;&gt;&#x9;&lt;/span&gt;&lt;/span&gt;&lt;font&gt;&lt;span style=&quot;white-space: pre;&quot;&gt;&#x9;&lt;/span&gt;&lt;span style=&quot;white-space: pre;&quot;&gt;&#x9;&lt;/span&gt;VARCHAR, default &#39;pending&#39;&lt;/font&gt;&lt;br&gt;&amp;nbsp;created_at&lt;span style=&quot;white-space: pre;&quot;&gt;&#x9;&lt;/span&gt;&lt;span style=&quot;white-space: pre;&quot;&gt;&#x9;&lt;/span&gt;&lt;font&gt;DATETIME&lt;/font&gt;&lt;br&gt;&lt;/div&gt;" style="rounded=0;whiteSpace=wrap;html=1;align=left;glass=0;fontSize=12;spacingTop=2;spacing=10;" vertex="1" parent="1">
          <mxGeometry x="90" y="480" width="280" height="130" as="geometry" />
        </mxCell>
        <mxCell id="MHuZDl--qb3jeEwY4W-m-5" value="&lt;div align=&quot;left&quot;&gt;&amp;nbsp;&lt;b&gt;&lt;font style=&quot;font-size: 15px;&quot;&gt;tournaments&lt;/font&gt;&lt;/b&gt;&lt;hr&gt;&lt;/div&gt;&lt;div align=&quot;left&quot;&gt;&amp;nbsp;&lt;span style=&quot;color: light-dark(rgb(0, 0, 0), rgb(255, 255, 0));&quot;&gt;tournament_id&lt;span style=&quot;white-space: pre;&quot;&gt;&#x9;&lt;/span&gt;&lt;/span&gt;&lt;font style=&quot;color: light-dark(rgb(0, 0, 0), rgb(255, 255, 0));&quot;&gt;INT AUTO_INCREMENT PK&lt;/font&gt;&lt;br&gt;&amp;nbsp;tournament_name&lt;span style=&quot;white-space: pre;&quot;&gt;&#x9;&lt;/span&gt;&lt;font&gt;VARCHAR&lt;/font&gt;&lt;/div&gt;&lt;div align=&quot;left&quot;&gt;&amp;nbsp;start_datetime&lt;span style=&quot;white-space: pre;&quot;&gt;&lt;span style=&quot;white-space: pre;&quot;&gt;&#x9;&lt;/span&gt;&lt;/span&gt;&lt;font&gt;DATETIME&lt;/font&gt;&lt;br&gt;&amp;nbsp;end_datetime&lt;span style=&quot;white-space: pre;&quot;&gt;&#x9;&lt;/span&gt;&lt;span style=&quot;white-space: pre;&quot;&gt;&#x9;DATETIM&lt;/span&gt;&lt;font&gt;E&lt;/font&gt;&lt;br&gt;&amp;nbsp;players_limit&lt;span style=&quot;white-space: pre;&quot;&gt;&#x9;&lt;/span&gt;&lt;span style=&quot;white-space: pre;&quot;&gt;&#x9;&lt;/span&gt;INT&lt;br&gt;&amp;nbsp;winner_ID &amp;nbsp; &lt;span style=&quot;white-space: pre;&quot;&gt;&#x9;&lt;span style=&quot;white-space: pre;&quot;&gt;&#x9;&lt;/span&gt;INT&lt;/span&gt;&lt;br&gt;&lt;/div&gt;&lt;div align=&quot;left&quot;&gt;&lt;br&gt;&lt;/div&gt;" style="rounded=0;whiteSpace=wrap;html=1;align=left;glass=0;fontSize=12;spacingTop=2;spacing=10;" vertex="1" parent="1">
          <mxGeometry x="400" y="240" width="280" height="160" as="geometry" />
        </mxCell>
        <mxCell id="MHuZDl--qb3jeEwY4W-m-6" value="&lt;div align=&quot;left&quot;&gt;&amp;nbsp;&lt;b&gt;&lt;font style=&quot;font-size: 15px;&quot;&gt;matches&lt;/font&gt;&lt;/b&gt;&lt;hr&gt;&lt;/div&gt;&lt;div align=&quot;left&quot;&gt;&amp;nbsp;&lt;span style=&quot;color: light-dark(rgb(0, 0, 0), rgb(255, 255, 0));&quot;&gt;match_ID&lt;span style=&quot;white-space: pre;&quot;&gt;&#x9;&lt;span style=&quot;white-space: pre;&quot;&gt;&#x9;&lt;/span&gt;&lt;/span&gt;&lt;/span&gt;&lt;font style=&quot;color: light-dark(rgb(0, 0, 0), rgb(255, 255, 0));&quot;&gt;INT AUTO_INCREMENT PK&lt;/font&gt;&lt;br&gt;&amp;nbsp;tournament_id&lt;span style=&quot;white-space: pre;&quot;&gt;&#x9;&lt;/span&gt;INT&lt;/div&gt;&lt;div align=&quot;left&quot;&gt;&amp;nbsp;round_number&lt;span style=&quot;white-space: pre;&quot;&gt;&#x9;&lt;/span&gt;&lt;span style=&quot;white-space: pre;&quot;&gt;INT&#x9;&lt;/span&gt;&lt;/div&gt;&lt;div align=&quot;left&quot;&gt;&amp;nbsp;match_datetime&lt;span style=&quot;white-space: pre;&quot;&gt;&lt;span style=&quot;white-space: pre;&quot;&gt;&#x9;&lt;/span&gt;&lt;/span&gt;&lt;font&gt;DATETIME&lt;/font&gt;&lt;br&gt;&amp;nbsp;player1_ID&lt;span style=&quot;white-space: pre;&quot;&gt;&#x9;&lt;/span&gt;&lt;span style=&quot;white-space: pre;&quot;&gt;&#x9;INT&lt;/span&gt;&lt;br&gt;&amp;nbsp;player2_ID&lt;span style=&quot;white-space: pre;&quot;&gt;&#x9;&lt;/span&gt;&lt;span style=&quot;white-space: pre;&quot;&gt;&#x9;&lt;/span&gt;INT&lt;br&gt;&amp;nbsp;score1&lt;span style=&quot;white-space: pre;&quot;&gt;&#x9;&lt;/span&gt; &amp;nbsp; &lt;span style=&quot;white-space: pre;&quot;&gt;&#x9;&lt;span style=&quot;white-space: pre;&quot;&gt;&#x9;&lt;/span&gt;INT&lt;/span&gt;&lt;br&gt;&lt;/div&gt;&lt;div align=&quot;left&quot;&gt;&amp;nbsp;score2&lt;span style=&quot;white-space: pre;&quot;&gt;&#x9;&lt;/span&gt;&lt;span style=&quot;white-space: pre;&quot;&gt;&#x9;&lt;/span&gt;&lt;span style=&quot;white-space: pre;&quot;&gt;&#x9;&lt;/span&gt;INT&lt;/div&gt;&lt;div align=&quot;left&quot;&gt;&amp;nbsp;winner_id&lt;span style=&quot;white-space: pre;&quot;&gt;&#x9;&lt;/span&gt;&lt;span style=&quot;white-space: pre;&quot;&gt;&#x9;&lt;/span&gt;INT&lt;/div&gt;" style="rounded=0;whiteSpace=wrap;html=1;align=left;glass=0;fontSize=12;spacingTop=2;spacing=10;" vertex="1" parent="1">
          <mxGeometry x="400" y="440" width="280" height="200" as="geometry" />
        </mxCell>
        <mxCell id="MHuZDl--qb3jeEwY4W-m-7" value="&lt;div align=&quot;left&quot;&gt;&amp;nbsp;&lt;b&gt;&lt;font style=&quot;font-size: 15px;&quot;&gt;tournament_register&lt;/font&gt;&lt;/b&gt;&lt;hr&gt;&lt;/div&gt;&lt;div align=&quot;left&quot;&gt;&amp;nbsp;tournament_id&lt;i&gt;&lt;span style=&quot;white-space: pre;&quot;&gt;&#x9;&lt;/span&gt;&lt;/i&gt;INT&lt;br&gt;&amp;nbsp;user_id&lt;span style=&quot;white-space: pre;&quot;&gt;&#x9;&lt;/span&gt;&lt;span style=&quot;white-space: pre;&quot;&gt;&#x9;&lt;/span&gt;&lt;i&gt;&lt;font&gt;&lt;span style=&quot;white-space: pre;&quot;&gt;&#x9;&lt;/span&gt;&lt;/font&gt;&lt;/i&gt;&lt;font&gt;INT&lt;/font&gt;&lt;/div&gt;&lt;div align=&quot;left&quot;&gt;&amp;nbsp;status&lt;span style=&quot;white-space: pre;&quot;&gt;&lt;span style=&quot;white-space: pre;&quot;&gt;&#x9;&lt;/span&gt;&lt;/span&gt;&lt;font&gt;&lt;span style=&quot;white-space: pre;&quot;&gt;&#x9;&lt;/span&gt;&lt;span style=&quot;white-space: pre;&quot;&gt;&#x9;ENUM(&#39;confirmed&#39;, &#39;waiting&#39;...)&lt;/span&gt;&lt;/font&gt;&lt;br&gt;&amp;nbsp;registered_at&lt;span style=&quot;white-space: pre;&quot;&gt;&#x9;&lt;/span&gt;&lt;span style=&quot;white-space: pre;&quot;&gt;&#x9;&lt;/span&gt;&lt;font&gt;DATETIME&lt;/font&gt;&lt;br&gt;&lt;/div&gt;" style="rounded=0;whiteSpace=wrap;html=1;align=left;glass=0;fontSize=12;spacingTop=2;spacing=10;" vertex="1" parent="1">
          <mxGeometry x="90" y="630" width="280" height="130" as="geometry" />
        </mxCell>
        <mxCell id="MHuZDl--qb3jeEwY4W-m-8" value="&lt;div align=&quot;left&quot;&gt;&amp;nbsp;&lt;b&gt;&lt;font style=&quot;font-size: 15px;&quot;&gt;tournaments&lt;/font&gt;&lt;/b&gt;&lt;hr&gt;&lt;/div&gt;&lt;div align=&quot;left&quot;&gt;&amp;nbsp;&lt;span style=&quot;color: light-dark(rgb(0, 0, 0), rgb(255, 255, 0));&quot;&gt;game_id&lt;span style=&quot;white-space: pre;&quot;&gt;&#x9;&lt;/span&gt;&lt;/span&gt;&lt;font style=&quot;color: light-dark(rgb(0, 0, 0), rgb(255, 255, 0));&quot;&gt;I&lt;span style=&quot;white-space: pre;&quot;&gt;&#x9;&lt;/span&gt;&lt;span style=&quot;white-space: pre;&quot;&gt;&#x9;&lt;/span&gt;NT AUTO_INCREMENT PK&lt;/font&gt;&lt;br&gt;&amp;nbsp;player_id&lt;span style=&quot;white-space: pre;&quot;&gt;&#x9;&lt;/span&gt;&lt;font&gt;&lt;span style=&quot;white-space: pre;&quot;&gt;&#x9;&lt;/span&gt;INT&lt;/font&gt;&lt;/div&gt;&lt;div align=&quot;left&quot;&gt;&amp;nbsp;played_at&lt;span style=&quot;white-space: pre;&quot;&gt;&lt;span style=&quot;white-space: pre;&quot;&gt;&#x9;&lt;span style=&quot;white-space: pre;&quot;&gt;&#x9;&lt;/span&gt;&lt;/span&gt;&lt;/span&gt;&lt;font&gt;DATETIME&lt;/font&gt;&lt;br&gt;&amp;nbsp;score&lt;span style=&quot;white-space: pre;&quot;&gt;&#x9;&lt;/span&gt;&lt;span style=&quot;white-space: pre;&quot;&gt;&#x9;&lt;/span&gt;&lt;span style=&quot;white-space: pre;&quot;&gt;&#x9;INT&lt;/span&gt;&lt;br&gt;&amp;nbsp;blocks_destroyed&lt;span style=&quot;white-space: pre;&quot;&gt;&#x9;&lt;/span&gt;INT&lt;br&gt;&amp;nbsp;game_duration&lt;span style=&quot;white-space: pre;&quot;&gt;&#x9;INT&lt;/span&gt;&lt;br&gt;&lt;/div&gt;&lt;div align=&quot;left&quot;&gt;&lt;br&gt;&lt;/div&gt;" style="rounded=0;whiteSpace=wrap;html=1;align=left;glass=0;fontSize=12;spacingTop=2;spacing=10;" vertex="1" parent="1">
          <mxGeometry x="400" y="670" width="280" height="160" as="geometry" />
        </mxCell>
      </root>
    </mxGraphModel>
  </diagram>
</mxfile>
